{
  "source": "C:\\Users\\Peter\\Desktop\\stuff\\MIUN\\quantitative_research\\video_compression\\videos\\BVI-HD\\BVI-HD_CDVL_videos\\ORIG\\Hamster_1920x1080_60fps.mp4",
  "output": "C:\\Users\\Peter\\Desktop\\stuff\\MIUN\\quantitative_research\\video_compression\\compressed_videos\\BVI-HD\\h264\\2.5\\Hamster_1920x1080_60fps_h264.mp4",
  "codec": "h264",
  "ok": "Input #0, mov,mp4,m4a,3gp,3g2,mj2, from 'C:\\Users\\Peter\\Desktop\\stuff\\MIUN\\quantitative_research\\video_compression\\videos\\BVI-HD\\BVI-HD_CDVL_videos\\ORIG\\Hamster_1920x1080_60fps.mp4':\n  Metadata:\n    major_brand     : isom\n    minor_version   : 512\n    compatible_brands: isomiso2avc1mp41\n    encoder         : Lavf54.28.101\n  Duration: 00:00:05.00, start: 0.000000, bitrate: 208485 kb/s\n  Stream #0:0[0x1](und): Video: h264 (High 4:4:4 Predictive) (avc1 / 0x31637661), yuv420p(progressive), 1920x1080, 208481 kb/s, 60 fps, 60 tbr, 60 tbn (default)\n    Metadata:\n      handler_name    : VideoHandler\n      vendor_id       : [0][0][0][0]\n[out#0/mp4 @ 000001f904f1d580] Codec AVOption b:a (set bitrate (in bits/s)) has not been used for any stream. The most likely reason is either wrong type (e.g. a video option with no video streams) or that it is a private option of some decoder which was not actually used for any stream.\nStream mapping:\n  Stream #0:0 -> #0:0 (h264 (native) -> h264 (libx264))\nPress [q] to stop, [?] for help\n[libx264 @ 000001f90568a4c0] using cpu capabilities: MMX2 SSE2Fast SSSE3 SSE4.2 AVX FMA3 BMI2 AVX2\n[libx264 @ 000001f90568a4c0] profile High, level 5.0, 4:2:0, 8-bit\n[libx264 @ 000001f90568a4c0] 264 - core 165 r3222 b35605a - H.264/MPEG-4 AVC codec - Copyleft 2003-2025 - http://www.videolan.org/x264.html - options: cabac=1 ref=5 deblock=1:0:0 analyse=0x3:0x113 me=hex subme=8 psy=1 psy_rd=1.00:0.00 mixed_ref=1 me_range=16 chroma_me=1 trellis=2 8x8dct=1 cqm=0 deadzone=21,11 fast_pskip=1 chroma_qp_offset=-2 threads=18 lookahead_threads=3 sliced_threads=0 nr=0 decimate=1 interlaced=0 bluray_compat=0 constrained_intra=0 bframes=3 b_pyramid=2 b_adapt=1 b_bias=0 direct=3 weightb=1 open_gop=0 weightp=2 keyint=250 keyint_min=25 scenecut=40 intra_refresh=0 rc_lookahead=50 rc=cbr mbtree=1 bitrate=2500 ratetol=1.0 qcomp=0.60 qpmin=0 qpmax=69 qpstep=4 vbv_maxrate=2500 vbv_bufsize=2500 nal_hrd=none filler=0 ip_ratio=1.40 aq=1:1.00\nOutput #0, mp4, to 'C:\\Users\\Peter\\Desktop\\stuff\\MIUN\\quantitative_research\\video_compression\\compressed_videos\\BVI-HD\\h264\\2.5\\Hamster_1920x1080_60fps_h264.mp4':\n  Metadata:\n    major_brand     : isom\n    minor_version   : 512\n    compatible_brands: isomiso2avc1mp41\n    encoder         : Lavf62.3.100\n  Stream #0:0(und): Video: h264 (avc1 / 0x31637661), yuv420p(tv, progressive), 1920x1080, q=2-31, 2500 kb/s, 60 fps, 15360 tbn (default)\n    Metadata:\n      encoder         : Lavc62.11.100 libx264\n      handler_name    : VideoHandler\n      vendor_id       : [0][0][0][0]\n    Side data:\n      cpb: bitrate max/min/avg: 2500000/0/2500000 buffer size: 2500000 vbv_delay: N/A\nframe=    0 fps=0.0 q=0.0 size=       0KiB time=N/A bitrate=N/A speed=N/A elapsed=0:00:00.52    \nframe=    0 fps=0.0 q=0.0 size=       0KiB time=N/A bitrate=N/A speed=N/A elapsed=0:00:01.09    \nframe=   24 fps= 15 q=38.0 size=       0KiB time=00:00:00.36 bitrate=   1.0kbits/s speed=0.225x elapsed=0:00:01.63    \nframe=   56 fps= 26 q=38.0 size=       0KiB time=00:00:00.83 bitrate=   0.5kbits/s speed=0.383x elapsed=0:00:02.17    \nframe=   80 fps= 29 q=38.0 size=     256KiB time=00:00:01.23 bitrate=1700.7kbits/s speed=0.44x elapsed=0:00:02.80    \nframe=  105 fps= 31 q=39.0 size=     256KiB time=00:00:01.70 bitrate=1233.8kbits/s speed=0.503x elapsed=0:00:03.37    \nframe=  132 fps= 33 q=39.0 size=     512KiB time=00:00:02.10 bitrate=1997.5kbits/s speed=0.528x elapsed=0:00:03.98    \nframe=  160 fps= 35 q=39.0 size=     768KiB time=00:00:02.63 bitrate=2389.3kbits/s speed=0.579x elapsed=0:00:04.54    \nframe=  192 fps= 37 q=39.0 size=     768KiB time=00:00:03.16 bitrate=1986.9kbits/s speed=0.618x elapsed=0:00:05.12    \nframe=  229 fps= 40 q=41.0 size=    1024KiB time=00:00:03.76 bitrate=2227.2kbits/s speed=0.663x elapsed=0:00:05.68    \nframe=  271 fps= 43 q=40.0 size=    1280KiB time=00:00:04.45 bitrate=2356.4kbits/s speed=0.711x elapsed=0:00:06.25    \n[mp4 @ 000001f904f11300] Starting second pass: moving the moov atom to the beginning of the file\n[out#0/mp4 @ 000001f904f1d580] video:1530KiB audio:0KiB subtitle:0KiB other streams:0KiB global headers:0KiB muxing overhead: 0.284311%\nframe=  300 fps= 45 q=-1.0 Lsize=    1535KiB time=00:00:04.96 bitrate=2531.1kbits/s speed=0.751x elapsed=0:00:06.61    \n[libx264 @ 000001f90568a4c0] frame I:2     Avg QP:33.72  size: 24628\n[libx264 @ 000001f90568a4c0] frame P:76    Avg QP:37.00  size:  8690\n[libx264 @ 000001f90568a4c0] frame B:222   Avg QP:40.03  size:  3858\n[libx264 @ 000001f90568a4c0] consecutive B-frames:  1.0%  0.0%  3.0% 96.0%\n[libx264 @ 000001f90568a4c0] mb I  I16..4: 11.8% 84.5%  3.7%\n[libx264 @ 000001f90568a4c0] mb P  I16..4:  3.0% 11.8%  0.1%  P16..4: 18.0%  1.4%  0.8%  0.0%  0.0%    skip:64.8%\n[libx264 @ 000001f90568a4c0] mb B  I16..4:  0.4%  1.3%  0.0%  B16..8: 19.3%  1.2%  0.1%  direct: 0.4%  skip:77.4%  L0:52.3% L1:46.4% BI: 1.2%\n[libx264 @ 000001f90568a4c0] 8x8 transform intra:78.4% inter:95.5%\n[libx264 @ 000001f90568a4c0] direct mvs  spatial:95.5% temporal:4.5%\n[libx264 @ 000001f90568a4c0] coded y,uvDC,uvAC intra: 21.1% 43.0% 9.0% inter: 1.5% 4.0% 0.0%\n[libx264 @ 000001f90568a4c0] i16 v,h,dc,p: 29% 29%  7% 35%\n[libx264 @ 000001f90568a4c0] i8 v,h,dc,ddl,ddr,vr,hd,vl,hu: 18% 12% 35%  4%  7%  6%  8%  4%  6%\n[libx264 @ 000001f90568a4c0] i4 v,h,dc,ddl,ddr,vr,hd,vl,hu: 14% 13% 21% 10% 13%  7% 12%  5%  5%\n[libx264 @ 000001f90568a4c0] i8c dc,h,v,p: 70% 14% 10%  6%\n[libx264 @ 000001f90568a4c0] Weighted P-Frames: Y:0.0% UV:0.0%\n[libx264 @ 000001f90568a4c0] ref P L0: 46.6%  9.1% 22.8%  9.5% 12.0%\n[libx264 @ 000001f90568a4c0] ref B L0: 69.6% 19.9%  8.3%  2.2%\n[libx264 @ 000001f90568a4c0] ref B L1: 90.8%  9.2%\n[libx264 @ 000001f90568a4c0] kb/s:2505.89\n",
  "seconds": 6.918731689453125,
  "probe_out": {}
}